<svg width="160" height="160" viewBox="0 0 160 160" fill="none" xmlns="http://www.w3.org/2000/svg">
    <path fill-rule="evenodd" clip-rule="evenodd"
        d="M72.9002 9.329C71.5462 9.737 71.3252 9.984 69.8762 12.7C69.5832 13.25 68.7982 14.51 68.1312 15.5C67.4652 16.49 66.6462 17.815 66.3102 18.444C65.5982 19.78 64.2072 21.914 62.4542 24.361C59.1302 29.001 55.5672 34.585 54.6602 36.574C53.8402 38.374 52.6262 40.282 50.6812 42.83C49.8712 43.891 48.5982 45.722 47.8542 46.897C47.1092 48.073 46.2342 49.455 45.9092 49.968C44.6392 51.972 40.3552 58.358 39.5822 59.4C39.1332 60.005 38.2622 61.355 37.6482 62.4C37.0332 63.445 36.3332 64.57 36.0922 64.9C35.2702 66.027 34.4282 67.774 33.0842 71.138C32.3452 72.987 31.2582 75.462 30.6702 76.639C30.0812 77.815 29.6002 78.826 29.6002 78.884C29.6002 78.942 29.3192 79.6 28.9762 80.345C28.6332 81.09 27.6802 83.275 26.8582 85.2C26.0362 87.125 24.7772 89.997 24.0592 91.582C23.3412 93.167 22.3982 95.544 21.9632 96.865C21.5272 98.185 21.0032 99.633 20.7972 100.083C16.2852 109.944 16.3632 109.672 17.3872 111.834C17.8922 112.902 18.8782 113.99 19.7222 114.412C20.0402 114.571 22.4152 116.104 25.0002 117.819C33.3122 123.333 36.6842 125.53 37.4002 125.897C37.7852 126.095 40.2622 127.706 42.9032 129.478C45.5452 131.25 48.9202 133.457 50.4032 134.381C51.8872 135.306 53.7752 136.574 54.6002 137.199C56.3432 138.518 60.4582 141.218 61.6672 141.834C62.1252 142.067 63.4902 142.906 64.7002 143.697C65.9102 144.488 67.6672 145.632 68.6042 146.239C69.5422 146.846 71.3422 148.12 72.6042 149.071C77.7682 152.958 79.6922 153.165 83.0812 150.2C83.7032 149.655 84.9512 148.588 85.8562 147.828C86.7602 147.067 87.8152 146.155 88.2002 145.801C89.3372 144.755 91.9462 142.808 93.3632 141.947C94.7052 141.132 95.6892 140.394 98.7682 137.894C99.7212 137.121 101.455 135.752 102.623 134.852C108.664 130.196 109.032 129.216 106.936 123.354C106.317 121.624 105.546 119.149 105.221 117.854C104.897 116.559 104.074 113.925 103.392 112C101.743 107.341 100.808 104.399 100.804 103.85L100.8 103.4L115.95 103.397C136.678 103.393 136.144 103.565 139.546 95.8C139.715 95.415 140.341 94.074 140.938 92.819C146.065 82.039 146.096 81.381 141.594 78.578C140.818 78.095 139.579 77.308 138.841 76.828C138.104 76.349 136.789 75.599 135.921 75.161C135.052 74.724 133.612 73.908 132.721 73.347C131.024 72.28 129.449 71.358 127.6 70.347C125.257 69.067 122.632 67.465 121.079 66.367L119.458 65.222L118.194 62.161C117.499 60.477 116.639 58.515 116.284 57.8C115.928 57.085 115.309 55.69 114.908 54.7C113.19 50.457 112.257 49.415 108.3 47.318C106.87 46.56 104.96 45.481 104.057 44.92L102.413 43.9L102.357 28.1L102.3 12.3L101.74 11.16C99.8222 7.25401 94.5552 8.83701 91.8282 14.139C91.6132 14.558 90.9182 15.62 90.2842 16.5C89.6512 17.38 88.8252 18.775 88.4502 19.6C87.7722 21.093 86.3872 23.144 84.1292 25.998C83.4772 26.822 82.7252 27.843 82.4582 28.267C81.8962 29.157 81.7912 29.118 81.5922 27.952C81.5132 27.483 81.1272 25.525 80.7342 23.6C80.3422 21.675 79.9652 19.695 79.8962 19.2C78.5952 9.783 77.3282 7.995 72.9002 9.329ZM73.4812 20.75C73.5402 20.942 73.7222 21.91 73.8852 22.9C74.0482 23.89 74.4082 25.69 74.6852 26.9C74.9612 28.11 75.5002 30.81 75.8822 32.9L76.5762 36.7L76.6382 56.153L76.7002 75.605L72.5952 79.653C67.0252 85.144 59.2222 92.2 58.7192 92.2C58.2722 92.2 55.9492 88.712 54.6022 86.016C53.7542 84.321 49.5672 77.771 47.6232 75.1C47.3032 74.66 46.3602 73.244 45.5282 71.953C44.6972 70.661 43.6322 69.086 43.1622 68.453C42.6922 67.819 42.3352 67.165 42.3702 67C42.4502 66.615 46.3322 60.814 47.3892 59.5C48.7042 57.864 53.8932 50.026 54.8042 48.3C55.7342 46.538 57.4542 43.911 59.1912 41.6C59.8112 40.775 60.8012 39.335 61.3922 38.4C61.9822 37.465 63.2912 35.44 64.3012 33.9C65.3102 32.36 66.8172 30.054 67.6492 28.775C68.4822 27.497 69.3322 26.282 69.5392 26.075C70.0002 25.616 70.8502 24.304 71.6522 22.815C72.9932 20.327 73.2582 20.027 73.4812 20.75ZM95.5102 40.557C95.4582 40.609 94.9842 40.382 94.4582 40.053C93.4852 39.446 88.8642 36.683 87.4022 35.835C86.4382 35.276 86.4112 34.976 87.2102 33.717C87.5452 33.188 88.0572 32.293 88.3462 31.728C89.0222 30.41 91.2622 27.108 92.0962 26.2C92.4492 25.815 93.3602 24.657 94.1192 23.627L95.5002 21.754L95.5522 31.108C95.5812 36.253 95.5622 40.505 95.5102 40.557ZM83.7102 41.18C83.8152 41.278 84.6142 41.654 85.4872 42.014C86.3602 42.374 87.6372 43.053 88.3242 43.524C89.6622 44.44 95.9432 48.144 100.463 50.683C103.602 52.446 103.754 52.627 102.785 53.451C100.587 55.319 96.9292 58.252 95.9592 58.925C94.3762 60.024 91.3192 62.726 87.1222 66.739C85.1442 68.63 83.4522 70.132 83.3632 70.077C83.1522 69.947 83.1492 41 83.3602 41C83.4482 41 83.6062 41.081 83.7102 41.18ZM109.852 59.75C110.577 61.263 111.592 63.535 112.106 64.8C114.114 69.745 114.527 70.265 118.134 72.384C119.326 73.083 120.84 73.996 121.5 74.413C122.16 74.829 123.06 75.33 123.5 75.526C126.488 76.86 137.507 83.525 137.744 84.142C137.927 84.619 137.298 86.257 135.756 89.322C134.987 90.85 133.92 92.969 133.385 94.03C132.851 95.092 132.173 96.15 131.879 96.381L131.344 96.802L107.256 96.751L83.1682 96.7L83.1832 87.7L83.1972 78.7L84.4492 77.535C85.1372 76.894 86.1712 76.059 86.7472 75.68C87.3232 75.301 87.9922 74.724 88.2332 74.398C88.4742 74.072 89.3912 73.196 90.2702 72.453C91.1502 71.709 93.1792 69.953 94.7812 68.55C96.3822 67.148 97.8072 66 97.9462 66C98.1412 66 98.2002 66.785 98.2002 69.386C98.2002 73.408 98.1472 73.305 100.32 73.508C103.267 73.784 106.48 73.322 110.3 72.072C113.787 70.931 113.74 70.608 109.818 68.748C108.433 68.092 106.355 67.107 105.2 66.559C104.045 66.012 102.425 65.338 101.6 65.062C100.775 64.786 100.065 64.527 100.023 64.486C99.8322 64.304 100.711 63.328 101.979 62.317C102.739 61.71 104.068 60.584 104.931 59.814C107.763 57.287 108.098 57.009 108.316 57.005C108.435 57.002 109.126 58.238 109.852 59.75ZM39.0012 74.15C39.0012 74.233 39.3802 74.795 39.8432 75.4C40.3052 76.005 41.3842 77.625 42.2392 79C46.5992 86.011 50.2692 91.621 51.3972 93C52.2202 94.006 54.0002 96.846 54.0002 97.153C54.0002 97.262 53.3962 97.88 52.6572 98.526C51.9192 99.172 49.8622 101.005 48.0872 102.6C44.0722 106.208 41.4592 108.436 40.3522 109.195C39.8832 109.516 38.3302 110.96 36.9002 112.404C33.8302 115.505 33.4942 115.731 32.7932 115.176C31.8792 114.452 27.5142 111.477 25.6502 110.308C23.4892 108.953 23.5212 109.064 24.5762 106.549C26.2332 102.599 30.2072 93.577 30.8632 92.272C31.2432 91.518 31.7982 90.315 32.0962 89.6C32.3942 88.885 32.7602 88.03 32.9102 87.7C33.0592 87.37 33.9842 85.12 34.9652 82.7C35.9462 80.28 37.1432 77.334 37.6252 76.153C38.3452 74.386 38.9972 73.438 39.0012 74.15ZM76.7002 107C76.7002 115.417 76.6272 120.728 76.5112 120.771C76.4072 120.811 76.0132 120.271 75.6352 119.571C75.2572 118.872 74.2942 117.265 73.4952 116C72.6952 114.735 71.7522 113.115 71.3982 112.4C71.0442 111.685 70.1452 110.245 69.4002 109.2C68.1552 107.452 66.6222 105.096 63.5702 100.238C62.1142 97.921 62.0972 98.097 63.9392 96.464C64.7852 95.714 66.0342 94.59 66.7152 93.968C67.3952 93.345 68.3002 92.612 68.7262 92.339C69.1522 92.066 71.0752 90.296 73.0002 88.404L76.5002 84.965L76.6002 89.133C76.6552 91.425 76.7002 99.465 76.7002 107ZM57.6792 103.69C58.3062 104.793 61.0992 108.966 61.5012 109.4C62.0052 109.944 63.4442 112.097 65.9112 116C66.7802 117.375 68.2352 119.558 69.1442 120.85C70.0532 122.143 71.0412 123.673 71.3392 124.25C72.0872 125.698 74.2452 128.993 75.6402 130.818L76.8002 132.335V138.168C76.8002 144.635 76.8692 144.375 75.4272 143.325C74.9172 142.954 73.9602 142.35 73.3002 141.982C72.6402 141.614 71.6312 140.933 71.0572 140.468C69.8292 139.475 64.2172 135.721 59.7332 132.896C57.9922 131.798 55.7872 130.315 54.8332 129.6C52.5522 127.888 51.7422 127.371 49.2162 126.008C47.3822 125.019 43.7692 122.749 40.0012 120.218C38.5192 119.223 38.5332 119.061 40.2232 117.695C41.0162 117.055 43.5172 114.917 45.7822 112.945C48.0472 110.973 50.0352 109.309 50.2002 109.249C50.8322 109.016 52.3832 107.655 54.5292 105.452C56.8072 103.112 57.2202 102.882 57.6792 103.69ZM93.3792 103.675C93.4882 103.806 93.9822 105.081 94.4762 106.507C95.5232 109.529 97.4802 115.118 98.3952 117.7C102.005 127.891 101.945 127.177 99.3652 129.147C95.5942 132.025 89.9902 136.55 88.7402 137.726C85.9692 140.334 83.5472 142.213 83.2892 141.955C83.1172 141.784 83.1102 103.907 83.2822 103.629C83.4952 103.285 93.0922 103.329 93.3792 103.675Z"
        fill="#DDDEE9" />
</svg>